<svg width="26" height="37" viewBox="0 0 26 37" fill="none" xmlns="http://www.w3.org/2000/svg">
<path d="M9.69766 16.05C9.73099 16.05 10.0977 15.4833 10.7977 14.35C10.8977 14.35 11.081 14.1333 11.3477 13.7C11.6477 13.4 11.7977 13.1 11.7977 12.8L12.5977 11.7C12.5977 11.5667 12.7977 11.2667 13.1977 10.8C13.631 9.96667 14.2143 9.05 14.9477 8.05C15.3477 7.45 15.6143 7.05 15.7477 6.85C15.9143 6.61667 16.031 6.43333 16.0977 6.3C16.1977 6.16667 16.2977 6.05 16.3977 5.95H15.9977L14.9977 6.05C14.8643 6.05 14.6643 6.08333 14.3977 6.15C11.7977 6.85 10.2143 7.18333 9.64766 7.15C9.08099 7.11667 8.61432 7.2 8.24766 7.4C7.68099 7.4 6.98099 7.48333 6.14766 7.65C4.74766 7.65 3.78099 7.33333 3.24766 6.7L2.74766 6.05L2.04766 4.7C1.94766 4.33333 1.96432 3.75 2.09766 2.95C2.23099 2.61666 2.51432 2.35 2.94766 2.15C3.41432 1.91666 3.96432 1.8 4.59766 1.8C5.63099 1.8 6.89766 1.75 8.39766 1.65C9.89766 1.55 11.5477 1.46667 13.3477 1.4C15.3143 1.4 18.1643 1.1 21.8977 0.499999C22.231 0.466666 22.6477 0.599999 23.1477 0.899997C23.6477 1.2 24.031 1.53333 24.2977 1.9C24.4977 2.4 24.731 2.83333 24.9977 3.2C25.3977 4.16667 25.0977 5.23333 24.0977 6.4L22.8977 7.45C22.8643 7.45 22.6477 7.78333 22.2477 8.45C19.5477 12.2167 18.081 14.2167 17.8477 14.45C17.781 14.5833 17.5977 14.8833 17.2977 15.35C17.031 15.7833 16.831 16.1167 16.6977 16.35L14.9977 18.4C14.9977 18.5667 14.8477 18.9167 14.5477 19.45L14.2477 19.65L12.7477 21.7L11.3477 23.75L10.4477 24.9L9.84766 25.9C9.84766 26.1 9.64766 26.4833 9.24766 27.05C8.88099 27.6167 8.56432 28.1333 8.29766 28.6C8.06432 29.0333 7.83099 29.4333 7.59766 29.8L8.84766 29.6L11.1477 29C11.6143 29 12.2143 28.85 12.9477 28.55C13.281 28.55 13.5643 28.5333 13.7977 28.5C13.8643 28.4333 14.181 28.3833 14.7477 28.35C14.8477 28.2833 15.2977 28.1833 16.0977 28.05C16.8977 27.9167 17.3977 27.85 17.5977 27.85C18.031 27.85 18.7977 27.7667 19.8977 27.6C20.831 27.5333 21.431 27.6333 21.6977 27.9C22.4643 28.6667 22.5977 29.6667 22.0977 30.9C22.0977 30.9667 21.9643 31.0667 21.6977 31.2C19.7643 31.8333 18.6143 32.2 18.2477 32.3C17.381 32.4667 16.6643 32.6833 16.0977 32.95C15.9643 32.95 15.7643 33.0167 15.4977 33.15C14.931 33.4167 14.181 33.6667 13.2477 33.9C11.281 34.4667 10.1143 34.8 9.74766 34.9C9.41432 35.0333 8.73099 35.2333 7.69766 35.5C6.69766 35.8 5.86432 35.9833 5.19766 36.05C4.53099 36.1167 3.69766 35.8 2.69766 35.1C2.43099 34.9333 2.26432 34.7833 2.19766 34.65L1.59766 33.75C0.764323 32.5833 0.714323 31.4333 1.44766 30.3C1.44766 30.2333 1.53099 30.0667 1.69766 29.8L2.94766 26.85L3.14766 25.9C3.14766 25.7667 3.33099 25.4833 3.69766 25.05C3.83099 24.75 3.99766 24.45 4.19766 24.15C4.39766 23.85 4.49766 23.6833 4.49766 23.65C4.93099 22.9833 5.34766 22.4833 5.74766 22.15L6.39766 21.15L7.04766 20.35C7.04766 20.0833 7.49766 19.4667 8.39766 18.5C8.46432 18.3333 8.74766 17.9167 9.24766 17.25L9.69766 16.05Z" fill="#3687FF"/>
</svg>
